HIERARCHY
ROOT Pelvis
{
	OFFSET 0.000000 0.000000 0.000000
	CHANNELS 6 Xposition Yposition Zposition Xrotation Yrotation Zrotation
	JOINT LeftUpLeg_virtual
	{
		OFFSET 0.000000 0.000000 0.000000
		CHANNELS 3 Xrotation Yrotation Zrotation
		JOINT LeftUpLeg
		{
			OFFSET 8.479700 -4.795502 -0.379100
			CHANNELS 3 Xrotation Yrotation Zrotation
			JOINT LeftLeg
			{
				OFFSET 0.024144 -32.555107 0.112900
				CHANNELS 3 Xrotation Yrotation Zrotation
				JOINT LeftFoot
				{
					OFFSET -0.024144 -32.638630 -3.012600
					CHANNELS 3 Xrotation Yrotation Zrotation
					JOINT LeftToeBase
					{
						OFFSET 0.970200 -13.225400 11.864200
						CHANNELS 3 Xrotation Yrotation Zrotation
						End Site
						{
							OFFSET 0 0 0
						}
					}
				}
			}
		}
	}
	JOINT RightUpLeg_virtual
	{
		OFFSET 0.000000 0.000000 0.000000
		CHANNELS 3 Xrotation Yrotation Zrotation
		JOINT RightUpLeg
		{
			OFFSET -8.479700 -4.795502 -0.379100
			CHANNELS 3 Xrotation Yrotation Zrotation
			JOINT RightLeg
			{
				OFFSET -0.023144 -32.555092 0.112900
				CHANNELS 3 Xrotation Yrotation Zrotation
				JOINT RightFoot
				{
					OFFSET 0.023144 -32.638641 -3.012700
					CHANNELS 3 Xrotation Yrotation Zrotation
					JOINT RightToeBase
					{
						OFFSET -0.970200 -13.225400 11.864200
						CHANNELS 3 Xrotation Yrotation Zrotation
						End Site
						{
							OFFSET 0 0 0
						}
					}
				}
			}
		}
	}
	JOINT Hips_virtual
	{
		OFFSET 0.000000 0.000000 0.000000
		CHANNELS 3 Xrotation Yrotation Zrotation
		JOINT Hips
		{
			OFFSET -0.000000 -0.000000 -0.000000
			CHANNELS 3 Xrotation Yrotation Zrotation
			JOINT Spine
			{
				OFFSET 0.000000 7.722000 1.166200
				CHANNELS 3 Xrotation Yrotation Zrotation
				JOINT Spine1
				{
					OFFSET 0.000000 12.024101 0.248800
					CHANNELS 3 Xrotation Yrotation Zrotation
					JOINT Spine2
					{
						OFFSET 0.000000 11.502998 -0.491200
						CHANNELS 3 Xrotation Yrotation Zrotation
						JOINT Neck_virtual
						{
							OFFSET 0.000000 0.000000 0.000000
							CHANNELS 3 Xrotation Yrotation Zrotation
							JOINT Neck
							{
								OFFSET 0.000000 18.430702 -3.123100
								CHANNELS 3 Xrotation Yrotation Zrotation
								JOINT Head
								{
									OFFSET 0.000000 9.051102 1.034000
									CHANNELS 3 Xrotation Yrotation Zrotation
									End Site
									{
										OFFSET 0 0 0
									}
								}
							}
						}
						JOINT LeftShoulder_virtual
						{
							OFFSET 0.000000 0.000000 0.000000
							CHANNELS 3 Xrotation Yrotation Zrotation
							JOINT LeftShoulder
							{
								OFFSET 6.197800 13.665199 -4.064700
								CHANNELS 3 Xrotation Yrotation Zrotation
								JOINT LeftArm
								{
									OFFSET 7.778100 -0.187103 -1.709300
									CHANNELS 3 Xrotation Yrotation Zrotation
									JOINT LeftForeArm
									{
										OFFSET 22.049376 0.000000 0.000000
										CHANNELS 3 Xrotation Yrotation Zrotation
										JOINT LeftHand
										{
											OFFSET 23.009392 0.000000 0.000000
											CHANNELS 3 Xrotation Yrotation Zrotation
											End Site
											{
												OFFSET 0 0 0
											}
										}
									}
								}
							}
						}
						JOINT RightShoulder_virtual
						{
							OFFSET 0.000000 0.000000 0.000000
							CHANNELS 3 Xrotation Yrotation Zrotation
							JOINT RightShoulder
							{
								OFFSET -6.197800 13.665199 -4.064700
								CHANNELS 3 Xrotation Yrotation Zrotation
								JOINT RightArm
								{
									OFFSET -7.778100 -0.187103 -1.709300
									CHANNELS 3 Xrotation Yrotation Zrotation
									JOINT RightForeArm
									{
										OFFSET -22.049376 0.000000 0.000000
										CHANNELS 3 Xrotation Yrotation Zrotation
										JOINT RightHand
										{
											OFFSET -23.009392 0.000000 0.000000
											CHANNELS 3 Xrotation Yrotation Zrotation
											End Site
											{
												OFFSET 0 0 0
											}
										}
									}
								}
							}
						}
					}
				}
			}
		}
	}
}
MOTION
Frames: 13
Frame Time: 0.03333333
-0.071145 87.869682 -3.773705 0.000000 0.000000 0.000000 -89.648425 0.345780 0.885151 -6.188560 17.032796 19.247029 4.684166 7.698515 0.312756 29.985999 29.307614 -30.698087 0.000000 0.000000 0.000000 -89.648425 0.345780 0.885151 -5.265362 -16.853191 -12.909801 2.731735 -7.582398 -7.549099 39.882697 -29.331622 30.401356 0.000000 0.000000 0.000000 -89.648425 0.345780 0.885151 0.000000 0.000000 0.000000 1.063460 -1.169252 0.790125 -0.317547 -2.434542 0.230483 0.000000 0.000000 0.000000 -0.303413 -2.418346 0.331942 -10.007546 0.108424 -1.808070 0.000000 0.000000 0.000000 -0.303413 -2.418346 0.331942 0.422244 -0.102939 -3.997471 35.266555 -28.376670 -54.536947 0.000415 -80.459581 0.000417 0.000000 0.000000 0.000000 -0.303413 -2.418346 0.331942 0.672261 1.791889 13.905684 39.524409 30.882058 33.636363 -179.999390 78.646691 179.999377 0.000000 0.000000 0.000000 
-0.070497 87.870300 -3.772644 0.000000 0.000000 0.000000 -89.647756 0.345556 0.884300 -6.177239 17.010380 19.263741 4.763572 7.717459 0.294102 29.990736 29.306282 -30.663089 0.000000 0.000000 0.000000 -89.647756 0.345556 0.884300 -5.282542 -16.851975 -12.907444 2.756423 -7.584623 -7.564137 39.848591 -29.337708 30.403604 0.000000 0.000000 0.000000 -89.647756 0.345556 0.884300 0.000000 0.000000 0.000000 1.063621 -1.302476 0.791317 -0.267800 -2.803662 0.269861 0.000000 0.000000 0.000000 -0.275045 -2.540291 0.378853 -10.308422 0.108422 -1.848249 0.000000 0.000000 0.000000 -0.275045 -2.540291 0.378853 0.286872 1.338427 -4.208839 35.597399 -28.973936 -53.870675 0.000449 -80.449841 0.000468 0.000000 0.000000 0.000000 -0.275045 -2.540291 0.378853 0.632470 1.910001 13.900112 39.216805 31.338465 32.961646 -179.999841 78.486004 179.999855 0.000000 0.000000 0.000000 
-0.071521 87.875313 -3.769997 0.000000 0.000000 0.000000 -89.646923 0.344596 0.885189 -6.170512 17.007504 19.267349 4.787140 7.726780 0.269420 30.039213 29.304312 -30.660948 0.000000 0.000000 0.000000 -89.646923 0.344596 0.885189 -5.303578 -16.846993 -12.891496 2.835530 -7.567117 -7.602406 39.728468 -29.380629 30.396896 0.000000 0.000000 0.000000 -89.646923 0.344596 0.885189 0.000000 0.000000 0.000000 1.069434 -1.486902 0.792375 -0.122002 -3.167863 0.318245 0.000000 0.000000 0.000000 -0.192742 -2.885992 0.467763 -10.438625 0.101447 -1.869203 0.000000 0.000000 0.000000 -0.192742 -2.885992 0.467763 0.143295 2.780179 -4.408304 35.798063 -29.342134 -53.527998 -0.000243 -80.441201 -0.000237 0.000000 0.000000 0.000000 -0.192742 -2.885992 0.467763 0.595529 2.019711 13.895006 37.989423 32.092293 32.256323 179.999923 78.039952 -179.999937 0.000000 0.000000 0.000000 
-0.078124 87.878250 -3.766069 0.000000 0.000000 0.000000 -89.642032 0.326571 0.889091 -6.162631 17.002841 19.278660 4.817823 7.764217 0.240730 30.079316 29.302280 -30.659616 0.000000 0.000000 0.000000 -89.642032 0.326571 0.889091 -5.348330 -16.836292 -12.866027 2.965884 -7.537735 -7.659460 39.527155 -29.444092 30.386152 0.000000 0.000000 0.000000 -89.642032 0.326571 0.889091 0.000000 0.000000 0.000000 1.016789 -1.606983 0.791246 -0.004325 -3.399447 0.363598 0.000000 0.000000 0.000000 -0.116516 -3.107313 0.517953 -10.409528 0.091392 -1.902494 0.000000 0.000000 0.000000 -0.116516 -3.107313 0.517953 -0.087596 3.411968 -4.598579 36.070243 -29.254725 -53.441606 0.000287 -80.534084 0.000296 0.000000 0.000000 0.000000 -0.116516 -3.107313 0.517953 0.552931 2.146239 13.889197 36.351271 32.916232 31.673066 -179.999568 77.555411 179.999582 0.000000 0.000000 0.000000 
-0.087418 87.882759 -3.763451 0.000000 0.000000 0.000000 -89.634280 0.288979 0.897377 -6.154692 17.001203 19.289306 4.848029 7.793509 0.205872 30.098670 29.300429 -30.659370 0.000000 0.000000 0.000000 -89.634280 0.288979 0.897377 -5.410286 -16.821238 -12.837312 3.129872 -7.500372 -7.729594 39.262455 -29.504761 30.363941 0.000000 0.000000 0.000000 -89.634280 0.288979 0.897377 0.000000 0.000000 0.000000 0.969281 -1.717179 0.778379 0.194116 -3.606527 0.416353 0.000000 0.000000 0.000000 0.025596 -3.299262 0.562685 -10.333471 0.079274 -1.949322 0.000000 0.000000 0.000000 0.025596 -3.299262 0.562685 -0.239434 3.890324 -4.805998 36.148134 -29.060409 -53.421604 0.000009 -80.642350 -0.000000 0.000000 0.000000 0.000000 0.025596 -3.299262 0.562685 0.496195 2.314827 13.881618 34.462484 33.833936 31.298147 -179.999786 77.311642 179.999786 0.000000 0.000000 0.000000 
-0.098282 87.889870 -3.762375 0.000000 0.000000 0.000000 -89.624130 0.213281 0.912438 -6.145109 17.010518 19.294690 4.843738 7.846710 0.162675 30.067538 29.299794 -30.662765 0.000000 0.000000 0.000000 -89.624130 0.213281 0.912438 -5.487622 -16.801874 -12.812141 3.297805 -7.472664 -7.807529 38.995100 -29.538423 30.345363 0.000000 0.000000 0.000000 -89.624130 0.213281 0.912438 0.000000 0.000000 0.000000 0.918678 -1.782250 0.757615 0.426498 -3.721047 0.468492 0.000000 0.000000 0.000000 0.187570 -3.405774 0.586443 -10.159340 0.063884 -2.006809 0.000000 0.000000 0.000000 0.187570 -3.405774 0.586443 -0.244873 3.866959 -5.058929 36.000233 -28.562991 -53.551477 -0.000007 -80.810591 -0.000000 0.000000 0.000000 0.000000 0.187570 -3.405774 0.586443 0.420547 2.585588 13.884517 32.158006 34.718446 31.307784 -179.999786 77.379766 179.999800 0.000000 0.000000 0.000000 
-0.115789 87.906639 -3.762932 0.000000 0.000000 0.000000 -89.611938 0.126432 0.934727 -6.135503 17.030856 19.296697 4.827404 7.895022 0.118527 29.993659 29.300255 -30.667358 0.000000 0.000000 0.000000 -89.611938 0.126432 0.934727 -5.563757 -16.782929 -12.786124 3.460553 -7.444758 -7.887740 38.714844 -29.542515 30.285721 0.000000 0.000000 0.000000 -89.611938 0.126432 0.934727 0.000000 0.000000 0.000000 0.870156 -1.792498 0.736920 0.768294 -3.725309 0.515754 0.000000 0.000000 0.000000 0.446242 -3.410710 0.585425 -10.114574 0.045414 -2.073425 0.000000 0.000000 0.000000 0.446242 -3.410710 0.585425 -0.247522 3.634491 -5.320401 35.720496 -28.101294 -53.559215 -0.000125 -80.968409 -0.000125 0.000000 0.000000 0.000000 0.446242 -3.410710 0.585425 0.335297 2.897686 13.887836 29.551336 35.490353 31.411777 -179.999937 77.256208 179.999950 0.000000 0.000000 0.000000 
-0.132733 87.930450 -3.764496 0.000000 0.000000 0.000000 -89.569557 0.018306 0.942412 -6.125054 17.038699 19.304066 4.853287 7.935239 0.087894 29.855115 29.301095 -30.671613 0.000000 0.000000 0.000000 -89.569557 0.018306 0.942412 -5.683718 -16.753967 -12.746118 3.682896 -7.411209 -7.964020 38.312860 -29.548150 30.186448 0.000000 0.000000 0.000000 -89.569557 0.018306 0.942412 0.000000 0.000000 0.000000 0.828499 -1.759380 0.706346 1.219296 -3.639524 0.557548 0.000000 0.000000 0.000000 0.803198 -3.324208 0.563889 -9.922170 0.025603 -2.147576 0.000000 0.000000 0.000000 0.803198 -3.324208 0.563889 -0.260801 3.387643 -5.581854 35.314510 -27.786267 -53.389485 0.000251 -81.098634 0.000276 0.000000 0.000000 0.000000 0.803198 -3.324208 0.563889 0.243038 3.244238 13.891632 26.512790 36.202349 31.701555 -179.999923 76.991969 179.999923 0.000000 0.000000 0.000000 
-0.156195 87.948883 -3.770996 0.000000 0.000000 0.000000 -89.520954 -0.099282 0.949671 -6.116084 17.042036 19.314855 4.897497 7.973941 0.067835 29.715086 29.301928 -30.675271 0.000000 0.000000 0.000000 -89.520954 -0.099282 0.949671 -5.818081 -16.722062 -12.702175 3.903646 -7.387504 -8.031096 37.916023 -29.553627 30.070089 0.000000 0.000000 0.000000 -89.520954 -0.099282 0.949671 0.000000 0.000000 0.000000 0.797481 -1.656391 0.638669 1.735697 -3.408506 0.582767 0.000000 0.000000 0.000000 1.216210 -3.089490 0.502161 -9.517122 0.003231 -2.228706 0.000000 0.000000 0.000000 1.216210 -3.089490 0.502161 -0.206244 3.124022 -5.858777 34.841256 -27.779698 -52.781458 0.000240 -81.219152 0.000240 0.000000 0.000000 0.000000 1.216210 -3.089490 0.502161 0.146419 3.618394 13.896578 23.018504 36.800216 32.193762 -179.999732 76.730058 179.999745 0.000000 0.000000 0.000000 
-0.180979 87.970413 -3.779572 0.000000 0.000000 0.000000 -89.466428 -0.223688 0.957278 -6.105885 17.044199 19.323835 4.944000 7.991232 0.054630 29.435588 29.305709 -30.682074 0.000000 0.000000 0.000000 -89.466428 -0.223688 0.957278 -5.976700 -16.683714 -12.661582 4.196207 -7.351016 -8.091768 37.392813 -29.558743 29.965020 0.000000 0.000000 0.000000 -89.466428 -0.223688 0.957278 0.000000 0.000000 0.000000 0.783247 -1.486125 0.560136 2.321581 -3.043246 0.587529 0.000000 0.000000 0.000000 1.691800 -2.725350 0.405566 -9.287824 -0.021718 -2.315000 0.000000 0.000000 0.000000 1.691800 -2.725350 0.405566 -0.123463 2.841901 -6.142499 34.323951 -28.062283 -51.786884 0.000189 -81.308368 0.000198 0.000000 0.000000 0.000000 1.691800 -2.725350 0.405566 0.047945 4.013269 13.903303 18.892047 37.000152 33.430692 179.999950 76.344877 -179.999937 0.000000 0.000000 0.000000 
-0.214509 87.989441 -3.803740 0.000000 0.000000 0.000000 -89.406322 -0.352658 0.961654 -6.085125 17.048714 19.328225 4.983478 7.997126 0.060094 28.953571 29.312652 -30.688696 0.000000 0.000000 0.000000 -89.406322 -0.352658 0.961654 -6.122015 -16.653009 -12.559798 4.378946 -7.326297 -8.236015 37.043517 -29.566045 29.812119 0.000000 0.000000 0.000000 -89.406322 -0.352658 0.961654 0.000000 0.000000 0.000000 0.805181 -1.304848 0.478357 3.067203 -2.653393 0.583923 0.000000 0.000000 0.000000 2.322055 -2.328567 0.308885 -9.015814 -0.049446 -2.404420 0.000000 0.000000 0.000000 2.322055 -2.328567 0.308885 -0.022359 2.549234 -6.430363 33.593339 -28.390446 -50.744470 0.000510 -81.391819 0.000508 0.000000 0.000000 0.000000 2.322055 -2.328567 0.308885 -0.049750 4.422014 13.912411 14.160840 37.024837 35.188800 -179.999800 75.885970 179.999814 0.000000 0.000000 0.000000 
-0.243960 88.019547 -3.842979 0.000000 0.000000 0.000000 -89.342201 -0.483530 0.963092 -6.059151 17.056430 19.323307 4.966911 8.005709 0.068997 28.415479 29.321001 -30.695857 0.000000 0.000000 0.000000 -89.342201 -0.483530 0.963092 -6.228296 -16.632245 -12.469987 4.439876 -7.306182 -8.341069 36.879320 -29.572506 29.639169 0.000000 0.000000 0.000000 -89.342201 -0.483530 0.963092 0.000000 0.000000 0.000000 0.871460 -1.062599 0.392146 3.934160 -2.197194 0.562378 0.000000 0.000000 0.000000 3.070638 -1.810765 0.179316 -8.768418 -0.079803 -2.494949 0.000000 0.000000 0.000000 3.070638 -1.810765 0.179316 0.082478 2.254700 -6.766434 32.795317 -28.902400 -49.367924 0.000299 -81.484840 0.000283 0.000000 0.000000 0.000000 3.070638 -1.810765 0.179316 -0.144235 4.837740 13.925880 9.337741 36.584556 37.204027 -179.999882 74.963580 179.999882 0.000000 0.000000 0.000000 
-0.289617 88.035530 -3.886698 0.000000 0.000000 0.000000 -89.274336 -0.614380 0.960953 -6.027310 17.065923 19.316895 4.932062 8.009849 0.109934 27.747432 29.332302 -30.703196 0.000000 0.000000 0.000000 -89.274336 -0.614380 0.960953 -6.341989 -16.615195 -12.284590 4.467424 -7.263663 -8.589418 36.770665 -29.580549 29.505710 0.000000 0.000000 0.000000 -89.274336 -0.614380 0.960953 0.000000 0.000000 0.000000 0.972756 -0.788371 0.307297 4.819268 -1.719120 0.527459 0.000000 0.000000 0.000000 3.835625 -1.307529 0.089760 -8.433281 -0.112593 -2.585293 0.000000 0.000000 0.000000 3.835625 -1.307529 0.089760 0.180588 1.966395 -7.149694 32.059433 -29.490356 -47.854938 0.000098 -81.576173 0.000087 0.000000 0.000000 0.000000 3.835625 -1.307529 0.089760 -0.232837 5.253583 13.942204 4.702368 35.875589 39.308575 -179.999896 73.574606 179.999882 0.000000 0.000000 0.000000 
